<svg xmlns="http://www.w3.org/2000/svg" viewBox="0 0 1120 380" width="100%" height="100%" role="img" aria-labelledby="heroTitle heroDesc">
  <title id="heroTitle">multilayer-sdk Engine Architecture</title>
  <desc id="heroDesc">Synchronized multi-panel map visualization, real-time laser crosshair tracking, and split-screen comparison engine.</desc>
  <defs>
    <linearGradient id="heroBg" x1="0%" y1="0%" x2="1" y2="1">
      <stop offset="0%" stop-color="#07121b"/>
      <stop offset="50%" stop-color="#0b1c2b"/>
      <stop offset="100%" stop-color="#091522"/>
    </linearGradient>
    <linearGradient id="panelGlow" x1="0%" y1="0%" x2="0" y2="1">
      <stop offset="0%" stop-color="#06b6d4" stop-opacity="0.3"/>
      <stop offset="100%" stop-color="#06b6d4" stop-opacity="0.0"/>
    </linearGradient>
  </defs>

  <rect width="1120" height="380" rx="20" fill="url(#heroBg)" stroke="#1e293b" stroke-width="2"/>

  <!-- Top Title Bar -->
  <text x="44" y="48" font-family="'Plus Jakarta Sans', Inter, sans-serif" font-size="22" font-weight="800" fill="#ffffff" letter-spacing="-0.01em">Synchronized Multi-Panel Map Visualization &amp; Spatial Comparison</text>
  <text x="44" y="74" font-family="'Fira Code', monospace" font-size="13" fill="#94a3b8">2/3/4/6/8 Panel Grids &#183; Bi-directional Navigation Sync &#183; Real-time Laser Crosshairs &#183; Split-Screen Swipe</text>

  <!-- Panel 1: Satellite / Orthophoto -->
  <g transform="translate(44, 98)">
    <rect width="235" height="248" rx="12" fill="#0d1f30" stroke="#1e3a53" stroke-width="1.5"/>
    <text x="16" y="28" font-family="'Plus Jakarta Sans', sans-serif" font-size="14" font-weight="700" fill="#38bdf8">1. Satellite Imagery</text>
    <text x="16" y="46" font-family="Inter, sans-serif" font-size="11" fill="#64748b">High-Res Orthophoto</text>

    <!-- Synthetic River & Urban Fabric -->
    <path d="M 20 180 Q 80 130 140 160 T 215 110" fill="none" stroke="#0284c7" stroke-width="10" stroke-linecap="round" opacity="0.7"/>
    <rect x="50" y="80" width="30" height="25" rx="3" fill="#64748b" opacity="0.6"/>
    <rect x="90" y="80" width="35" height="30" rx="3" fill="#64748b" opacity="0.8"/>
    <rect x="140" y="70" width="40" height="35" rx="3" fill="#64748b" opacity="0.5"/>

    <!-- Laser Dot -->
    <circle cx="120" cy="140" r="6" fill="#ef4444"><animate attributeName="r" values="6;8;6" dur="2.5s" repeatCount="indefinite"/></circle>
    <text x="16" y="232" font-family="'Fira Code', monospace" font-size="10.5" fill="#38bdf8">Esri World Imagery</text>
  </g>

  <!-- Panel 2: Thematic Choropleth -->
  <g transform="translate(305, 98)">
    <rect width="235" height="248" rx="12" fill="#0d1f30" stroke="#1e3a53" stroke-width="1.5"/>
    <text x="16" y="28" font-family="'Plus Jakarta Sans', sans-serif" font-size="14" font-weight="700" fill="#34d399">2. Demographic Choropleth</text>
    <text x="16" y="46" font-family="Inter, sans-serif" font-size="11" fill="#64748b">Quantiles Classification</text>

    <!-- Choropleth Polygons -->
    <polygon points="30,80 110,75 95,140 25,130" fill="#440154" opacity="0.85" stroke="#ffffff" stroke-width="1"/>
    <polygon points="110,75 205,80 190,145 95,140" fill="#3b528b" opacity="0.85" stroke="#ffffff" stroke-width="1"/>
    <polygon points="25,130 95,140 85,200 20,190" fill="#21918c" opacity="0.85" stroke="#ffffff" stroke-width="1"/>
    <polygon points="95,140 190,145 180,205 85,200" fill="#fde725" opacity="0.9" stroke="#ffffff" stroke-width="1"/>

    <!-- Laser Dot -->
    <circle cx="120" cy="140" r="6" fill="#ef4444"><animate attributeName="r" values="6;8;6" dur="2.5s" repeatCount="indefinite"/></circle>
    <text x="16" y="232" font-family="'Fira Code', monospace" font-size="10.5" fill="#34d399">Viridis Population Bins</text>
  </g>

  <!-- Panel 3: Risk & Hazard Heatmap -->
  <g transform="translate(566, 98)">
    <rect width="235" height="248" rx="12" fill="#0d1f30" stroke="#1e3a53" stroke-width="1.5"/>
    <text x="16" y="28" font-family="'Plus Jakarta Sans', sans-serif" font-size="14" font-weight="700" fill="#f59e0b">3. Hazard Susceptibility</text>
    <text x="16" y="46" font-family="Inter, sans-serif" font-size="11" fill="#64748b">Flood Inundation &amp; Landslide</text>

    <!-- Contour Rings -->
    <circle cx="120" cy="140" r="65" fill="#ef4444" opacity="0.25"/>
    <circle cx="120" cy="140" r="45" fill="#f97316" opacity="0.45"/>
    <circle cx="120" cy="140" r="25" fill="#facc15" opacity="0.65"/>

    <!-- Laser Dot -->
    <circle cx="120" cy="140" r="6" fill="#ef4444"><animate attributeName="r" values="6;8;6" dur="2.5s" repeatCount="indefinite"/></circle>
    <text x="16" y="232" font-family="'Fira Code', monospace" font-size="10.5" fill="#f59e0b">Zone Index &gt; 0.85</text>
  </g>

  <!-- Panel 4: Curtain Swipe Comparison -->
  <g transform="translate(827, 98)">
    <rect width="249" height="248" rx="12" fill="#0d1f30" stroke="#1e3a53" stroke-width="1.5"/>
    <text x="16" y="28" font-family="'Plus Jakarta Sans', sans-serif" font-size="14" font-weight="700" fill="#a855f7">4. Temporal Swipe Map</text>
    <text x="16" y="46" font-family="Inter, sans-serif" font-size="11" fill="#64748b">Before (2020) vs After (2026)</text>

    <!-- Left side (Red) & Right side (Blue) -->
    <rect x="20" y="70" width="105" height="135" fill="#ef4444" opacity="0.4"/>
    <rect x="125" y="70" width="105" height="135" fill="#3b82f6" opacity="0.4"/>

    <!-- Swipe Divider Handle -->
    <line x1="125" y1="65" x2="125" y2="210" stroke="#ffffff" stroke-width="3"/>
    <circle cx="125" cy="137" r="10" fill="#10b981" stroke="#ffffff" stroke-width="2"/>

    <!-- Laser Dot -->
    <circle cx="120" cy="140" r="6" fill="#ef4444"><animate attributeName="r" values="6;8;6" dur="2.5s" repeatCount="indefinite"/></circle>
    <text x="16" y="232" font-family="'Fira Code', monospace" font-size="10.5" fill="#a855f7">Real-Time Split Slider</text>
  </g>

  <!-- Synchronized Laser Ray Linking All 4 Viewports -->
  <line x1="164" y1="238" x2="947" y2="238" stroke="#ef4444" stroke-width="1.5" stroke-dasharray="4 4" opacity="0.8"/>
</svg>